<svg width="213" height="168" viewBox="0 0 213 168" xmlns="http://www.w3.org/2000/svg">
    <defs>
        <linearGradient x1="102.378%" y1="-120.634%" x2="21.176%" y2="156.443%" id="kwjaanjs2a">
            <stop stop-color="#FF09B4" offset="0%"/>
            <stop stop-color="#5A00F7" offset="100%"/>
        </linearGradient>
    </defs>
    <g fill="none" fill-rule="evenodd">
        <text font-family="Poppins-Bold, Poppins" font-size="72" font-weight="bold" fill="#171717">
                    <tspan x="0" y="184">TPT-2</tspan>
                </text>
        <path d="M105.489 70.435c-.188-.288-.345-.559-.53-.808-1.82-2.437-4.224-3.949-7.183-4.47-1.861-.33-3.709-.138-5.49.554-2.455.953-4.385 2.531-5.694 4.863-.832 1.48-1.436 3.044-1.549 4.757-.117 1.772-.005 3.531.457 5.26.806 3.017 2.357 5.61 4.377 7.931 2.115 2.43 4.584 4.44 7.264 6.186a49.633 49.633 0 0 0 7.853 4.177c.356.15.655.155 1.01.004a49.954 49.954 0 0 0 5.212-2.573c3.17-1.814 6.13-3.905 8.708-6.541 1.808-1.85 3.356-3.87 4.479-6.217 1.334-2.792 1.866-5.741 1.468-8.809-.376-2.898-1.68-5.327-3.99-7.141-3.047-2.392-6.427-3.224-10.17-2.118-2.177.644-3.98 1.898-5.37 3.731-.292.385-.557.791-.852 1.214M106.504 108c-2.175-.13-4.36-.216-6.537-.403-3.569-.307-7.09-.91-10.54-1.894-3.822-1.088-7.448-2.614-10.786-4.783-1.852-1.203-3.608-2.543-5.137-4.135-2.288-2.384-4.174-5.057-5.558-8.073a32.06 32.06 0 0 1-2.421-7.805c-.329-1.852-.544-3.72-.524-5.605.017-1.544-.024-3.094.09-4.63.106-1.4.328-2.797.602-4.174.69-3.475 1.977-6.732 3.766-9.791 1.017-1.738 2.188-3.368 3.46-4.929 2.037-2.496 4.296-4.775 6.719-6.892 2.09-1.827 4.205-3.626 6.301-5.445 1.32-1.146 2.644-2.287 3.93-3.469 1.61-1.477 3.17-3.005 4.608-4.653 1.96-2.246 3.64-4.676 4.857-7.407 1.031-2.315 1.694-4.73 1.943-7.254.168-1.712.133-3.428.067-5.146a26.563 26.563 0 0 0-.735-5.305c-.33-1.346-.757-2.67-1.16-3.997-.147-.483-.254-.946.011-1.42.363-.65 1.084-.978 1.762-.678.904.401 1.783.866 2.644 1.354a29.332 29.332 0 0 1 6.371 4.846c3.501 3.523 5.842 7.697 6.911 12.555.297 1.349.523 2.713.566 4.096.045 1.397.1 2.798.043 4.193a43.509 43.509 0 0 1-2.99 14.215c-.705 1.79-1.456 3.564-2.196 5.34-.934 2.24-.767 4.361.76 6.283 1.172 1.477 2.773 2.2 4.649 2.203 2.697.002 5.191-2.209 5.551-4.88.087-.644.1-1.305.08-1.956a35.336 35.336 0 0 1 .23-5.224c.27-2.273.787-4.486 1.624-6.618 1.194-3.04 2.98-5.668 5.514-7.765 1.255-1.038 2.637-1.87 4.098-2.588 1.139-.559 2.101.138 2.233.994.062.408-.019.85-.092 1.266-.504 2.85-.642 5.725-.505 8.607.15 3.147.817 6.201 1.86 9.176.977 2.79 2.243 5.457 3.458 8.146 1.04 2.3 2.059 4.61 2.858 7.009a41.183 41.183 0 0 1 1.655 6.873c.384 2.543.522 5.097.427 7.662a35.456 35.456 0 0 1-.898 6.656c-.885 3.84-2.397 7.406-4.705 10.614a31.109 31.109 0 0 1-5.11 5.547c-2.968 2.526-6.304 4.428-9.92 5.855a43.696 43.696 0 0 1-5.088 1.633 52.244 52.244 0 0 1-5.237 1.058c-1.097.167-2.2.314-3.307.392-2.06.145-4.126.233-6.202.346" fill="url(#kwjaanjs2a)"/>
    </g>
</svg>
